<svg xmlns="http://www.w3.org/2000/svg" xmlns:xlink="http://www.w3.org/1999/xlink" version="1.1" width="1000" height="1000" viewBox="0 0 1000 1000" xml:space="preserve">
<desc>Created with Fabric.js 3.5.0</desc>
<defs>
</defs>
<rect x="0" y="0" width="100%" height="100%" fill="#ffffff"/>
<g transform="matrix(1.7759 0 0 1.7759 500.0071 500.0072)" id="301588">
<path style="stroke: none; stroke-width: 1; stroke-dasharray: none; stroke-linecap: butt; stroke-dashoffset: 0; stroke-linejoin: miter; stroke-miterlimit: 4; is-custom-font: none; font-file-url: none; fill: rgb(89,89,89); fill-rule: nonzero; opacity: 0.5;" vector-effect="non-scaling-stroke" transform=" translate(-263.975, -255.9563)" d="M 278.5 215.6 L 23 471 c -9.4 9.4 -9.4 24.6 0 33.9 s 24.6 9.4 33.9 0 l 57 -57 h 68 c 49.7 0 97.9 -14.4 139 -41 c 11.1 -7.2 5.5 -23 -7.8 -23 c -5.1 0 -9.2 -4.1 -9.2 -9.2 c 0 -4.1 2.7 -7.6 6.5 -8.8 l 81 -24.3 c 2.5 -0.8 4.8 -2.1 6.7 -4 l 22.4 -22.4 c 10.1 -10.1 2.9 -27.3 -11.3 -27.3 l -32.2 0 c -5.1 0 -9.2 -4.1 -9.2 -9.2 c 0 -4.1 2.7 -7.6 6.5 -8.8 l 112 -33.6 c 4 -1.2 7.4 -3.9 9.3 -7.7 C 506.4 207.6 512 184.1 512 160 c 0 -41 -16.3 -80.3 -45.3 -109.3 l -5.5 -5.5 C 432.3 16.3 393 0 352 0 s -80.3 16.3 -109.3 45.3 L 139 149 C 91 197 64 262.1 64 330 v 55.3 L 253.6 195.8 c 6.2 -6.2 16.4 -6.2 22.6 0 c 5.4 5.4 6.1 13.6 2.2 19.8 z" stroke-linecap="round"/>
</g>
</svg>